<?xml version="1.0" encoding="ISO-8859-1" standalone="yes"?>
<!DOCTYPE svg PUBLIC "-//W3C//DTD SVG 20010904//EN"
  "http://www.w3.org/TR/2001/REC-SVG-20010904/DTD/svg10.dtd">
<svg width="22.9003cm" height="18.8582cm" viewBox="414.8438 119.5859 3245.7188 2672.8125" version="1.0"
    xmlns="http://www.w3.org/2000/svg"
    xmlns:xlink="http://www.w3.org/1999/xlink">
<desc>
  Exported by the ArtWorks SVGExport module.
  Source document: SCSI::Develop.$.Develop.Web.!WebXpress.^.Input.cm.Pages.radio.morse.artwork.visual
</desc>
<g transform="matrix(1 0 0 -1 0 2911.9844)" stroke-miterlimit="16" fill-rule="evenodd" clip-rule="evenodd" stroke-linejoin="bevel" stroke-linecap="butt">
<g>
<path d="M581.1172 2338 702.0781 2338 737.2734 2433.3594 904.9531 2433.3594 938.2344 2338 1068.7969 2338 896.6328 2784.7188 750.7188 2784.7188 581.1172 2338 Z M876.7969 2517.8359 764.7969 2517.8359 822.3984 2692.5547 823.6797 2692.5547 876.7969 2517.8359 Z" fill="#d9d9d9"/>
<path d="M1112.3984 2338 1300.5547 2338 C1380.5547 2338 1474.6328 2360.3984 1474.6328 2467.2734 1474.6328 2521.6797 1443.9141 2553.6797 1384.3984 2565.8359 L1384.3984 2567.1172 C1434.3125 2583.7578 1463.1172 2615.1172 1463.1172 2671.4375 1463.1172 2748.2344 1401.0391 2784.7188 1317.8359 2784.7188 L1112.3984 2784.7188 1112.3984 2338 Z M1231.4375 2527.4375 1267.9141 2527.4375 C1308.875 2527.4375 1355.5938 2522.9531 1355.5938 2474.3125 1355.5938 2428.875 1310.1563 2422.4766 1266.6328 2422.4766 L1231.4375 2422.4766 1231.4375 2527.4375 Z M1231.4375 2700.2344 1265.9922 2700.2344 C1305.6797 2700.2344 1344.0781 2696.3984 1344.0781 2655.4375 1344.0781 2617.6797 1303.7578 2608.0781 1264.7188 2608.0781 L1231.4375 2608.0781 1231.4375 2700.2344 Z" fill="#d9d9d9"/>
<path d="M1909.3125 2441.6797 C1876.6797 2428.875 1836.9922 2418.6328 1797.9531 2418.6328 1710.9141 2418.6328 1648.8359 2471.7578 1648.8359 2559.4375 1648.8359 2642.6328 1703.875 2704.0781 1788.3594 2704.0781 1829.3125 2704.0781 1866.4375 2693.8359 1904.8359 2672.7188 L1914.4375 2769.3594 C1871.5547 2782.1563 1827.3984 2792.3984 1781.9531 2792.3984 1634.7578 2792.3984 1525.9531 2714.9531 1525.9531 2559.4375 1525.9531 2390.4766 1663.5547 2330.3125 1782.5938 2330.3125 1843.3984 2330.3125 1881.1563 2339.9141 1915.0781 2348.2344 L1909.3125 2441.6797 Z" fill="#d9d9d9"/>
<path d="M1969.5938 2338 2132.1563 2338 C2284.4766 2338 2396.4766 2396.2344 2396.4766 2563.2734 2396.4766 2736.0781 2287.6797 2784.7188 2132.1563 2784.7188 L1969.5938 2784.7188 1969.5938 2338 Z M2088.6328 2696.3984 2134.7188 2696.3984 C2221.7578 2696.3984 2273.5938 2650.3125 2273.5938 2561.3594 2273.5938 2472.3984 2223.6797 2426.3125 2134.7188 2426.3125 L2088.6328 2426.3125 2088.6328 2696.3984 Z" fill="#d9d9d9"/>
<path d="M2464.3984 2338 2786.3125 2338 2786.3125 2422.4766 2583.4375 2422.4766 2583.4375 2523.5938 2768.3984 2523.5938 2768.3984 2608.0781 2583.4375 2608.0781 2583.4375 2700.2344 2779.2734 2700.2344 2779.2734 2784.7188 2464.3984 2784.7188 2464.3984 2338 Z" fill="#d9d9d9"/>
<path d="M2855.3984 2338 2974.4375 2338 2974.4375 2517.8359 3146.5938 2517.8359 3146.5938 2602.3125 2974.4375 2602.3125 2974.4375 2700.2344 3154.2734 2700.2344 3154.2734 2784.7188 2855.3984 2784.7188 2855.3984 2338 Z" fill="#d9d9d9"/>
<path d="M3627.3984 2599.1172 3442.4375 2599.1172 3442.4375 2514.6328 3512.1953 2514.6328 3512.1953 2426.3125 C3501.3125 2421.1953 3485.9531 2418.6328 3469.9531 2418.6328 3382.9141 2418.6328 3320.8359 2471.7578 3320.8359 2559.4375 3320.8359 2663.7578 3400.1953 2704.0781 3496.8359 2704.0781 3524.9922 2704.0781 3568.5156 2697.0391 3605.6328 2675.2734 L3615.2344 2772.5547 C3571.7188 2789.1953 3509.6328 2792.3984 3480.1953 2792.3984 3316.3594 2792.3984 3197.9531 2727.7578 3197.9531 2559.4375 3197.9531 2390.4766 3335.5547 2330.3125 3454.5938 2330.3125 3495.5547 2330.3125 3551.875 2331.5938 3627.3984 2350.7969 L3627.3984 2599.1172 Z" fill="#d9d9d9"/>
<path d="M465.0469 1699.8594 584.0859 1699.8594 584.0859 1891.2188 724.8906 1891.2188 724.8906 1699.8594 843.9297 1699.8594 843.9297 2146.5781 724.8906 2146.5781 724.8906 1975.6953 584.0859 1975.6953 584.0859 2146.5781 465.0469 2146.5781 465.0469 1699.8594 Z" fill="#d9d9d9"/>
<path d="M964.8125 1699.8594 1083.8516 1699.8594 1083.8516 2146.5781 964.8125 2146.5781 964.8125 1699.8594 Z" fill="#d9d9d9"/>
<path d="M1189.5156 1838.9297 C1189.5156 1777.0859 1224.4297 1692.2969 1334.1563 1692.2969 L1373.5547 1692.1719 C1494.5156 1692.1719 1533.5547 1758.0938 1533.5547 1854.0938 L1533.5547 2146.5781 1414.5156 2146.5781 1414.5156 1889.9375 C1414.5156 1816.9766 1388.9141 1792.0156 1353.7188 1792.0156 1321.1875 1790.0547 1300.5 1810.3594 1299.5 1855.3594 L1300.2422 1879.8281 1189.5156 1879.8281 1189.5156 1838.9297 Z" fill="#d9d9d9"/>
<path d="M1648.5938 1699.8594 1767.6328 1699.8594 1767.6328 1902.7344 1768.9141 1902.7344 1907.7969 1699.8594 2059.4766 1699.8594 1881.5547 1938.5781 2046.6797 2146.5781 1903.3125 2146.5781 1768.9141 1964.1719 1767.6328 1964.1719 1767.6328 2146.5781 1648.5938 2146.5781 1648.5938 1699.8594 Z" fill="#d9d9d9"/>
<path d="M2142.5938 1699.8594 2445.9531 1699.8594 2445.9531 1788.1719 2261.6328 1788.1719 2261.6328 2146.5781 2142.5938 2146.5781 2142.5938 1699.8594 Z" fill="#d9d9d9"/>
<path d="M2527.3984 1699.8594 2643.875 1699.8594 2641.3125 2042.8984 2642.5938 2042.8984 2751.3984 1699.8594 2860.8359 1699.8594 2974.7578 2042.8984 2976.0391 2042.8984 2974.1172 1699.8594 3090.5938 1699.8594 3090.5938 2146.5781 2910.1172 2146.5781 2810.9141 1849.6172 2809.6328 1849.6172 2714.9141 2146.5781 2527.3984 2146.5781 2527.3984 1699.8594 Z" fill="#d9d9d9"/>
<path d="M3204.5156 1699.8594 3313.9531 1699.8594 3310.1172 2005.1328 3311.3984 2005.1328 3467.5547 1699.8594 3615.3984 1699.8594 3615.3984 2146.5781 3506.5938 2146.5781 3508.5156 1843.2188 3507.2344 1843.2188 3356.1953 2146.5781 3204.5156 2146.5781 3204.5156 1699.8594 Z" fill="#d9d9d9"/>
<path d="M760.9531 1286.0781 C760.9531 1143.9922 839.0391 1055.0313 984.9531 1055.0313 1130.875 1055.0313 1208.9531 1143.9922 1208.9531 1286.0781 1208.9531 1429.4375 1132.1563 1517.1172 984.9531 1517.1172 837.7578 1517.1172 760.9531 1429.4375 760.9531 1286.0781 L760.9531 1286.0781 Z M883.8359 1286.0781 C883.8359 1363.5156 912.6328 1428.7969 984.9531 1428.7969 1057.2734 1428.7969 1086.0781 1363.5156 1086.0781 1286.0781 1086.0781 1212.4766 1057.2734 1143.3516 984.9531 1143.3516 912.6328 1143.3516 883.8359 1212.4766 883.8359 1286.0781 L883.8359 1286.0781 Z" fill="#d9d9d9"/>
<path d="M1301.1953 1062.7188 1420.2344 1062.7188 1420.2344 1218.875 1466.3125 1218.875 C1577.6797 1218.875 1643.5938 1272.6328 1643.5938 1362.875 1643.5938 1463.3516 1579.5938 1509.4375 1443.2734 1509.4375 L1301.1953 1509.4375 1301.1953 1062.7188 Z M1420.2344 1424.9531 1450.9531 1424.9531 C1491.9141 1424.9531 1524.5547 1410.2344 1524.5547 1364.7969 1524.5547 1318.0781 1491.9141 1303.3516 1450.9531 1303.3516 L1420.2344 1303.3516 1420.2344 1424.9531 Z" fill="#d9d9d9"/>
<path d="M1836.8359 1286.0781 C1836.8359 1363.5156 1865.6328 1428.7969 1937.9531 1428.7969 2010.2734 1428.7969 2039.0781 1363.5156 2039.0781 1286.0781 2039.0781 1212.4766 2010.2734 1143.3516 1937.9531 1143.3516 1865.6328 1143.3516 1836.8359 1212.4766 1836.8359 1286.0781 L1836.8359 1286.0781 Z M2019.2344 978.2344 2153.6328 978.2344 2048.0391 1077.4375 C2122.9141 1111.3516 2161.9531 1185.5938 2161.9531 1286.0781 2161.9531 1429.4375 2085.1563 1517.1172 1937.9531 1517.1172 1790.7578 1517.1172 1713.9531 1429.4375 1713.9531 1286.0781 1713.9531 1143.9922 1792.0391 1055.0313 1937.9531 1055.0313 L1944.3594 1055.0313 2019.2344 978.2344 Z" fill="#d9d9d9"/>
<path d="M2256.3984 1062.7188 2375.4375 1062.7188 2375.4375 1239.3516 2400.3984 1239.3516 C2444.5547 1239.3516 2459.9141 1220.1563 2484.2344 1143.3516 L2509.8359 1062.7188 2633.9922 1062.7188 2590.4766 1184.3125 C2568.0781 1238.7109 2565.5156 1272.6328 2527.1172 1282.875 L2527.1172 1284.1563 C2584.7188 1297.5938 2612.875 1337.2734 2612.875 1396.7969 2612.875 1473.5938 2548.2344 1509.4375 2468.875 1509.4375 L2256.3984 1509.4375 2256.3984 1062.7188 Z M2375.4375 1424.9531 2406.7969 1424.9531 C2452.2344 1424.9531 2493.8359 1417.2734 2493.8359 1375.6719 2493.8359 1325.1172 2445.1953 1323.8359 2406.7969 1323.8359 L2375.4375 1323.8359 2375.4375 1424.9531 Z" fill="#d9d9d9"/>
<path d="M2709.6328 1074.2344 C2749.3125 1061.4375 2801.1563 1055.0313 2842.7578 1055.0313 2941.9531 1055.0313 3039.2344 1086.3984 3039.2344 1202.2344 3039.2344 1363.5156 2828.0391 1314.875 2828.0391 1387.1953 2828.0391 1426.2344 2877.9531 1428.7969 2908.0391 1428.7969 2941.9531 1428.7969 2976.5156 1422.3984 3007.2344 1408.3125 L3014.9141 1500.4766 C2984.8359 1510.7109 2942.5938 1517.1172 2899.7188 1517.1172 2810.1172 1517.1172 2705.1563 1487.6719 2705.1563 1380.1563 2705.1563 1217.5938 2916.3594 1270.0781 2916.3594 1186.875 2916.3594 1151.0313 2880.5156 1143.3516 2842.7578 1143.3516 2793.4766 1143.3516 2750.5938 1156.1563 2719.875 1172.7969 L2709.6328 1074.2344 Z" fill="#d9d9d9"/>
<path d="M3218.3984 1062.7188 3337.4375 1062.7188 3337.4375 1421.1172 3447.5156 1421.1172 3447.5156 1509.4375 3108.3125 1509.4375 3108.3125 1421.1172 3218.3984 1421.1172 3218.3984 1062.7188 Z" fill="#d9d9d9"/>
<path d="M989.875 871.2969 870.8359 871.2969 870.8359 614.0156 C870.8359 555.1328 854.8359 505.2109 794.0391 505.2109 733.2344 505.2109 717.2344 555.1328 717.2344 614.0156 L717.2344 871.2969 598.1953 871.2969 598.1953 594.1719 C598.1953 471.9375 677.5547 416.8906 794.0391 416.8906 910.5156 416.8906 989.875 471.9375 989.875 594.1719 L989.875 871.2969 Z" fill="#d9d9d9"/>
<path d="M1214.1563 424.5781 1361.3594 424.5781 1513.6797 871.2969 1391.4375 871.2969 1291.5938 520.5703 1290.3125 520.5703 1191.1172 871.2969 1064.3984 871.2969 1214.1563 424.5781 Z" fill="#d9d9d9"/>
<path d="M1688.3125 424.5781 1842.5547 424.5781 1901.4375 767.6172 1902.7188 767.6172 1966.0781 424.5781 2119.0391 424.5781 2218.875 871.2969 2103.0391 871.2969 2044.7969 528.2578 2043.5156 528.2578 1980.7969 871.2969 1829.7578 871.2969 1769.5938 528.2578 1768.3125 528.2578 1710.7188 871.2969 1589.1172 871.2969 1688.3125 424.5781 Z" fill="#d9d9d9"/>
<path d="M2262.3984 424.5781 2397.4375 424.5781 2483.1953 589.0547 2569.5938 424.5781 2711.6797 424.5781 2568.3125 659.4531 2698.875 871.2969 2568.3125 871.2969 2491.5156 724.0938 2416.6328 871.2969 2277.7578 871.2969 2407.0391 659.4531 2262.3984 424.5781 Z" fill="#d9d9d9"/>
<path d="M2922.1563 424.5781 3041.1953 424.5781 3041.1953 592.8906 3205.0391 871.2969 3068.0781 871.2969 2981.6797 692.0938 2893.9922 871.2969 2757.0391 871.2969 2922.1563 592.8906 2922.1563 424.5781 Z" fill="#d9d9d9"/>
<path d="M3608.7969 871.2969 3266.3984 871.2969 3266.3984 782.9766 3473.1172 782.9766 3260.6328 519.2969 3260.6328 424.5781 3610.0781 424.5781 3610.0781 512.8906 3389.9141 512.8906 3608.7969 776.5703 3608.7969 871.2969 Z" fill="#d9d9d9"/>
</g>
<path d="M678 2478 950 2478" stroke="#000000" stroke-width="60" stroke-linejoin="miter" stroke-linecap="round" fill="none"/>
<circle cx="826" cy="2738" r="36" stroke="#000000" stroke-width="1.25" stroke-linejoin="miter" stroke-linecap="round" fill="#000000"/>
<path d="M1174 2738 1174 2394" stroke="#000000" stroke-width="60" stroke-linejoin="miter" stroke-linecap="round" fill="none"/>
<circle cx="1326" cy="2742" r="36" stroke="#000000" stroke-width="1.25" stroke-linejoin="miter" stroke-linecap="round" fill="#000000"/>
<circle cx="1326" cy="2574" r="36" stroke="#000000" stroke-width="1.25" stroke-linejoin="miter" stroke-linecap="round" fill="#000000"/>
<circle cx="1326" cy="2382" r="36" stroke="#000000" stroke-width="1.25" stroke-linejoin="miter" stroke-linecap="round" fill="#000000"/>
<path d="M1858 2734 C1802 2770 1662 2754 1614 2662" stroke="#000000" stroke-width="60" stroke-linejoin="miter" stroke-linecap="round" fill="none"/>
<circle cx="1590" cy="2578" r="36" stroke="#000000" stroke-width="1.25" stroke-linejoin="miter" stroke-linecap="round" fill="#000000"/>
<circle cx="1870" cy="2386" r="36" stroke="#000000" stroke-width="1.25" stroke-linejoin="miter" stroke-linecap="round" fill="#000000"/>
<path d="M1610 2490 C1634 2418 1714 2378 1782 2374" stroke="#000000" stroke-width="60" stroke-linejoin="miter" stroke-linecap="round" fill="none"/>
<path d="M2030 2726 2030 2382" stroke="#000000" stroke-width="60" stroke-linejoin="miter" stroke-linecap="round" fill="none"/>
<circle cx="2234" cy="2726" r="36" stroke="#000000" stroke-width="1.25" stroke-linejoin="miter" stroke-linecap="round" fill="#000000"/>
<circle cx="2234" cy="2402" r="36" stroke="#000000" stroke-width="1.25" stroke-linejoin="miter" stroke-linecap="round" fill="#000000"/>
<circle cx="2534" cy="2566" r="36" stroke="#000000" stroke-width="1.25" stroke-linejoin="miter" stroke-linecap="round" fill="#000000"/>
<circle cx="2918" cy="2734" r="36" stroke="#000000" stroke-width="1.25" stroke-linejoin="miter" stroke-linecap="round" fill="#000000"/>
<circle cx="3106" cy="2742" r="36" stroke="#000000" stroke-width="1.25" stroke-linejoin="miter" stroke-linecap="round" fill="#000000"/>
<circle cx="3102" cy="2562" r="36" stroke="#000000" stroke-width="1.25" stroke-linejoin="miter" stroke-linecap="round" fill="#000000"/>
<path d="M2918 2642 2918 2398" stroke="#000000" stroke-width="60" stroke-linejoin="miter" stroke-linecap="round" fill="none"/>
<path d="M3436.6797 2742.2578 C3340.1406 2738.625 3259.8359 2667.4141 3262 2554" stroke="#000000" stroke-width="60" stroke-linejoin="miter" stroke-linecap="round" fill="none"/>
<path d="M3281.0469 2467.4141 C3326.5 2396.2031 3408.3203 2364.3828 3508.3203 2379.5313" stroke="#000000" stroke-width="60" stroke-linejoin="miter" stroke-linecap="round" fill="none"/>
<circle cx="3566" cy="2546" r="36" stroke="#000000" stroke-width="1.25" stroke-linejoin="miter" stroke-linecap="round" fill="#000000"/>
<circle cx="526.4531" cy="2096.8594" r="36" stroke="#000000" stroke-width="1.25" stroke-linejoin="miter" stroke-linecap="round" fill="#000000"/>
<circle cx="790.4531" cy="2092.8594" r="36" stroke="#000000" stroke-width="1.25" stroke-linejoin="miter" stroke-linecap="round" fill="#000000"/>
<circle cx="786.4531" cy="1756.8594" r="36" stroke="#000000" stroke-width="1.25" stroke-linejoin="miter" stroke-linecap="round" fill="#000000"/>
<circle cx="522.4531" cy="1752.8594" r="36" stroke="#000000" stroke-width="1.25" stroke-linejoin="miter" stroke-linecap="round" fill="#000000"/>
<circle cx="1026.4531" cy="2092.8594" r="36" stroke="#000000" stroke-width="1.25" stroke-linejoin="miter" stroke-linecap="round" fill="#000000"/>
<circle cx="1026.4531" cy="1764.8594" r="36" stroke="#000000" stroke-width="1.25" stroke-linejoin="miter" stroke-linecap="round" fill="#000000"/>
<circle cx="1246.9063" cy="1831.5156" r="36" stroke="#000000" stroke-width="1.25" stroke-linejoin="miter" stroke-linecap="round" fill="#000000"/>
<path d="M1275.3047 1753.1484 1430.9141 1753.1484" stroke="#000000" stroke-width="60" stroke-linejoin="miter" stroke-linecap="round" fill="none"/>
<path d="M1475.8047 2106.2578 1475.8047 1991.5469" stroke="#000000" stroke-width="60" stroke-linejoin="miter" stroke-linecap="round" fill="none"/>
<path d="M1476.8047 1922.7188 1476.8047 1808.0078" stroke="#000000" stroke-width="60" stroke-linejoin="miter" stroke-linecap="round" fill="none"/>
<path d="M1945.5 2106.3594 1843.5 1976.3594" stroke="#000000" stroke-width="60" stroke-linejoin="miter" stroke-linecap="round" fill="none"/>
<path d="M1852.5 1884.3594 1951.5 1741.3594" stroke="#000000" stroke-width="60" stroke-linejoin="miter" stroke-linecap="round" fill="none"/>
<circle cx="1709.4531" cy="1930.8594" r="36" stroke="#000000" stroke-width="1.25" stroke-linejoin="miter" stroke-linecap="round" fill="#000000"/>
<circle cx="2202.4531" cy="2091.8594" r="36" stroke="#000000" stroke-width="1.25" stroke-linejoin="miter" stroke-linecap="round" fill="#000000"/>
<circle cx="2299.4531" cy="1743.8594" r="36" stroke="#000000" stroke-width="1.25" stroke-linejoin="miter" stroke-linecap="round" fill="#000000"/>
<circle cx="2391.4531" cy="1743.8594" r="36" stroke="#000000" stroke-width="1.25" stroke-linejoin="miter" stroke-linecap="round" fill="#000000"/>
<path d="M2202.8047 2009.2578 2202.5 1755.3594" stroke="#000000" stroke-width="60" stroke-linejoin="miter" stroke-linecap="round" fill="none"/>
<path d="M2584.5 2093.3594 2584.5 1743.3594" stroke="#000000" stroke-width="60" stroke-linejoin="miter" stroke-linecap="round" fill="none"/>
<path d="M3036.5 2099.3594 3036.5 1749.3594" stroke="#000000" stroke-width="60" stroke-linejoin="miter" stroke-linecap="round" fill="none"/>
<path d="M3260.5 2094.3594 3260.5 1744.3594" stroke="#000000" stroke-width="60" stroke-linejoin="miter" stroke-linecap="round" fill="none"/>
<circle cx="3543.4531" cy="1759.8594" r="36" stroke="#000000" stroke-width="1.25" stroke-linejoin="miter" stroke-linecap="round" fill="#000000"/>
<path d="M956.5 1472.2188 C846.5 1449.2188 812.5 1333.2188 831.5 1221.2188" stroke="#000000" stroke-width="60" stroke-linejoin="miter" stroke-linecap="round" fill="none"/>
<path d="M864.5 1146.2188 C927.5 1081.2188 1042.5 1081.2188 1113.5 1152.2188" stroke="#000000" stroke-width="60" stroke-linejoin="miter" stroke-linecap="round" fill="none"/>
<path d="M1145.5 1225.2188 C1165.5 1347.2188 1121.5 1442.2188 1044.5 1464.2188" stroke="#000000" stroke-width="60" stroke-linejoin="miter" stroke-linecap="round" fill="none"/>
<circle cx="1361.4531" cy="1360.7188" r="36" stroke="#000000" stroke-width="1.25" stroke-linejoin="miter" stroke-linecap="round" fill="#000000"/>
<circle cx="1575.4531" cy="1364.7188" r="36" stroke="#000000" stroke-width="1.25" stroke-linejoin="miter" stroke-linecap="round" fill="#000000"/>
<path d="M1392.5 1467.2188 1503.5 1467.2188" stroke="#000000" stroke-width="60" stroke-linejoin="miter" stroke-linecap="round" fill="none"/>
<path d="M1400.5 1262.2188 1511.5 1262.2188" stroke="#000000" stroke-width="60" stroke-linejoin="miter" stroke-linecap="round" fill="none"/>
<path d="M1915.5 1470.2188 C1815.5 1452.2188 1789.5 1374.2188 1782.5 1294.2188" stroke="#000000" stroke-width="60" stroke-linejoin="miter" stroke-linecap="round" fill="none"/>
<path d="M1784.5 1217.2188 C1803.5 1157.2188 1849.5 1114.2188 1905.5 1099.2188" stroke="#000000" stroke-width="60" stroke-linejoin="miter" stroke-linecap="round" fill="none"/>
<path d="M2056.5 1147.2188 C2097.5 1206.2188 2113.5 1279.2188 2094.5 1351.2188" stroke="#000000" stroke-width="60" stroke-linejoin="miter" stroke-linecap="round" fill="none"/>
<circle cx="1992.4531" cy="1101.7188" r="36" stroke="#000000" stroke-width="1.25" stroke-linejoin="miter" stroke-linecap="round" fill="#000000"/>
<circle cx="2318.4531" cy="1119.7188" r="36" stroke="#000000" stroke-width="1.25" stroke-linejoin="miter" stroke-linecap="round" fill="#000000"/>
<circle cx="2557.4531" cy="1115.7188" r="36" stroke="#000000" stroke-width="1.25" stroke-linejoin="miter" stroke-linecap="round" fill="#000000"/>
<path d="M2344.5 1279.2188 2455.5 1279.2188" stroke="#000000" stroke-width="60" stroke-linejoin="miter" stroke-linecap="round" fill="none"/>
<circle cx="2881.4531" cy="1472.7188" r="36" stroke="#000000" stroke-width="1.25" stroke-linejoin="miter" stroke-linecap="round" fill="#000000"/>
<circle cx="2882.4531" cy="1286.7188" r="36" stroke="#000000" stroke-width="1.25" stroke-linejoin="miter" stroke-linecap="round" fill="#000000"/>
<circle cx="2881.4531" cy="1103.7188" r="36" stroke="#000000" stroke-width="1.25" stroke-linejoin="miter" stroke-linecap="round" fill="#000000"/>
<path d="M3153.5 1466.2188 3397.5 1466.2188" stroke="#000000" stroke-width="60" stroke-linejoin="miter" stroke-linecap="round" fill="none"/>
<circle cx="655.4531" cy="816.5781" r="36" stroke="#000000" stroke-width="1.25" stroke-linejoin="miter" stroke-linecap="round" fill="#000000"/>
<circle cx="930.4531" cy="816.5781" r="36" stroke="#000000" stroke-width="1.25" stroke-linejoin="miter" stroke-linecap="round" fill="#000000"/>
<circle cx="1144.4531" cy="814.5781" r="36" stroke="#000000" stroke-width="1.25" stroke-linejoin="miter" stroke-linecap="round" fill="#000000"/>
<circle cx="1436.4531" cy="815.5781" r="36" stroke="#000000" stroke-width="1.25" stroke-linejoin="miter" stroke-linecap="round" fill="#000000"/>
<circle cx="1288.4531" cy="474.5781" r="36" stroke="#000000" stroke-width="1.25" stroke-linejoin="miter" stroke-linecap="round" fill="#000000"/>
<path d="M649.0313 352.25 939.0313 352.25" stroke="#000000" stroke-width="60" stroke-linejoin="miter" stroke-linecap="round" fill="none"/>
<path d="M1144.0391 352.25 1434.0391 352.25" stroke="#000000" stroke-width="60" stroke-linejoin="miter" stroke-linecap="round" fill="none"/>
<circle cx="1661.4531" cy="816.5781" r="36" stroke="#000000" stroke-width="1.25" stroke-linejoin="miter" stroke-linecap="round" fill="#000000"/>
<path d="M1804.5 483.0781 1869.5 819.0781" stroke="#000000" stroke-width="60" stroke-linejoin="miter" stroke-linecap="round" fill="none"/>
<path d="M2081.5 475.0781 2153.5 821.0781" stroke="#000000" stroke-width="60" stroke-linejoin="miter" stroke-linecap="round" fill="none"/>
<path d="M2373.5 826.0781 2445.5 704.0781" stroke="#000000" stroke-width="60" stroke-linejoin="miter" stroke-linecap="round" fill="none"/>
<path d="M2535.5 610.0781 2615.5 469.0781" stroke="#000000" stroke-width="60" stroke-linejoin="miter" stroke-linecap="round" fill="none"/>
<circle cx="2438.4531" cy="614.5781" r="36" stroke="#000000" stroke-width="1.25" stroke-linejoin="miter" stroke-linecap="round" fill="#000000"/>
<circle cx="2545.4531" cy="719.5781" r="36" stroke="#000000" stroke-width="1.25" stroke-linejoin="miter" stroke-linecap="round" fill="#000000"/>
<circle cx="2981.4531" cy="642.5781" r="36" stroke="#000000" stroke-width="1.25" stroke-linejoin="miter" stroke-linecap="round" fill="#000000"/>
<path d="M2982.5 464.0781 2982.5 561.0781" stroke="#000000" stroke-width="60" stroke-linejoin="miter" stroke-linecap="round" fill="none"/>
<path d="M2868.5 805.0781 2920.5 704.0781" stroke="#000000" stroke-width="60" stroke-linejoin="miter" stroke-linecap="round" fill="none"/>
<path d="M3044.5 700.0781 3109.5 818.0781" stroke="#000000" stroke-width="60" stroke-linejoin="miter" stroke-linecap="round" fill="none"/>
<path d="M3313.5 827.0781 3557.5 827.0781" stroke="#000000" stroke-width="60" stroke-linejoin="miter" stroke-linecap="round" fill="none"/>
<path d="M3516.5 750.0781 3329.5 518.0781" stroke="#000000" stroke-width="60" stroke-linejoin="miter" stroke-linecap="round" fill="none"/>
<circle cx="3413.4531" cy="468.5781" r="36" stroke="#000000" stroke-width="1.25" stroke-linejoin="miter" stroke-linecap="round" fill="#000000"/>
<circle cx="3542.4531" cy="468.5781" r="36" stroke="#000000" stroke-width="1.25" stroke-linejoin="miter" stroke-linecap="round" fill="#000000"/>
<path d="M2891.0625 425.1563 2891.0625 538.5313" stroke="#000000" stroke-width="5" stroke-linejoin="miter" stroke-linecap="round" fill="none"/>
<path transform="matrix(0 0.0555 -0.0555 0 2891.0625 538.5313)" stroke="none" fill="#000000" d="M-90 -180 360 0 -90 180 0 0 -90 -180 Z"/>
<path d="M2283.3281 803.0234 2344.6563 705.6875" stroke="#000000" stroke-width="5" stroke-linejoin="miter" stroke-linecap="round" fill="none"/>
<path transform="matrix(0.0296 -0.047 0.047 0.0296 2344.6563 705.6875)" stroke="none" fill="#000000" d="M-90 -180 360 0 -90 180 0 0 -90 -180 Z"/>
<path d="M3294.9609 899.9141 3387.0781 899.9141" stroke="#000000" stroke-width="5" stroke-linejoin="miter" stroke-linecap="round" fill="none"/>
<path transform="matrix(0.0555 0 0 0.0555 3387.0781 899.9141)" stroke="none" fill="#000000" d="M-90 -180 360 0 -90 180 0 0 -90 -180 Z"/>
<path d="M1197.5234 1906.1172 1303.8125 1906.1172" stroke="#000000" stroke-width="5" stroke-linejoin="miter" stroke-linecap="round" fill="none"/>
<path transform="matrix(0.0555 0 0 0.0555 1303.8125 1906.1172)" stroke="none" fill="#000000" d="M-90 -180 360 0 -90 180 0 0 -90 -180 Z"/>
<path d="M2026.5781 2062.0078 1955.7188 1969.8906" stroke="#000000" stroke-width="5" stroke-linejoin="miter" stroke-linecap="round" fill="none"/>
<path transform="matrix(-0.0339 -0.044 0.044 -0.0339 1955.7188 1969.8906)" stroke="none" fill="#000000" d="M-90 -180 360 0 -90 180 0 0 -90 -180 Z"/>
<g>
<path d="M826.2969 2756.4453 C825.3984 2752.3438 822.0938 2749.7969 815.3984 2749.7969 L815.3984 2745.0938 823.5938 2745.0938 823.5938 2721 830.8984 2721 830.8984 2756.4453 826.2969 2756.4453 Z" fill="#ffffff"/>
</g>
<g>
<path d="M1175.2969 2744.4453 C1174.3984 2740.3438 1171.0938 2737.7969 1164.3984 2737.7969 L1164.3984 2733.0938 1172.5938 2733.0938 1172.5938 2709 1179.8984 2709 1179.8984 2744.4453 1175.2969 2744.4453 Z" fill="#ffffff"/>
</g>
<g>
<path d="M1716.2969 2759.4453 C1715.3984 2755.3438 1712.0938 2752.7969 1705.3984 2752.7969 L1705.3984 2748.0938 1713.5938 2748.0938 1713.5938 2724 1720.8984 2724 1720.8984 2759.4453 1716.2969 2759.4453 Z" fill="#ffffff"/>
</g>
<g>
<path d="M2031.2969 2735.4453 C2030.3984 2731.3438 2027.0938 2728.7969 2020.3984 2728.7969 L2020.3984 2724.0938 2028.5938 2724.0938 2028.5938 2700 2035.8984 2700 2035.8984 2735.4453 2031.2969 2735.4453 Z" fill="#ffffff"/>
</g>
<g>
<path d="M2535.2969 2583.4453 C2534.3984 2579.3438 2531.0938 2576.7969 2524.3984 2576.7969 L2524.3984 2572.0938 2532.5938 2572.0938 2532.5938 2548 2539.8984 2548 2539.8984 2583.4453 2535.2969 2583.4453 Z" fill="#ffffff"/>
</g>
<g>
<path d="M2919.2969 2751.4453 C2918.3984 2747.3438 2915.0938 2744.7969 2908.3984 2744.7969 L2908.3984 2740.0938 2916.5938 2740.0938 2916.5938 2716 2923.8984 2716 2923.8984 2751.4453 2919.2969 2751.4453 Z" fill="#ffffff"/>
</g>
<g>
<path d="M3303.2969 2691.4453 C3302.3984 2687.3438 3299.0938 2684.7969 3292.3984 2684.7969 L3292.3984 2680.0938 3300.5938 2680.0938 3300.5938 2656 3307.8984 2656 3307.8984 2691.4453 3303.2969 2691.4453 Z" fill="#ffffff"/>
</g>
<g>
<path d="M3262.2969 2096.4453 C3261.3984 2092.3438 3258.0938 2089.7969 3251.3984 2089.7969 L3251.3984 2085.0938 3259.5938 2085.0938 3259.5938 2061 3266.8984 2061 3266.8984 2096.4453 3262.2969 2096.4453 Z" fill="#ffffff"/>
</g>
<g>
<path d="M2587.2969 2094.4453 C2586.3984 2090.3438 2583.0938 2087.7969 2576.3984 2087.7969 L2576.3984 2083.0938 2584.5938 2083.0938 2584.5938 2059 2591.8984 2059 2591.8984 2094.4453 2587.2969 2094.4453 Z" fill="#ffffff"/>
</g>
<g>
<path d="M2204.2969 2107.4453 C2203.3984 2103.3438 2200.0938 2100.7969 2193.3984 2100.7969 L2193.3984 2096.0938 2201.5938 2096.0938 2201.5938 2072 2208.8984 2072 2208.8984 2107.4453 2204.2969 2107.4453 Z" fill="#ffffff"/>
</g>
<g>
<path d="M1944.2969 2119.4453 C1943.3984 2115.3438 1940.0938 2112.7969 1933.3984 2112.7969 L1933.3984 2108.0938 1941.5938 2108.0938 1941.5938 2084 1948.8984 2084 1948.8984 2119.4453 1944.2969 2119.4453 Z" fill="#ffffff"/>
</g>
<g>
<path d="M1248.2969 1848.4453 C1247.3984 1844.3438 1244.0938 1841.7969 1237.3984 1841.7969 L1237.3984 1837.0938 1245.5938 1837.0938 1245.5938 1813 1252.8984 1813 1252.8984 1848.4453 1248.2969 1848.4453 Z" fill="#ffffff"/>
</g>
<g>
<path d="M1028.2969 2107.4453 C1027.3984 2103.3438 1024.0938 2100.7969 1017.3984 2100.7969 L1017.3984 2096.0938 1025.5938 2096.0938 1025.5938 2072 1032.8984 2072 1032.8984 2107.4453 1028.2969 2107.4453 Z" fill="#ffffff"/>
</g>
<g>
<path d="M527.2969 2114.4453 C526.3984 2110.3438 523.0938 2107.7969 516.3984 2107.7969 L516.3984 2103.0938 524.5938 2103.0938 524.5938 2079 531.8984 2079 531.8984 2114.4453 527.2969 2114.4453 Z" fill="#ffffff"/>
</g>
<g>
<path d="M844.2969 1387.4453 C843.3984 1383.3438 840.0938 1380.7969 833.3984 1380.7969 L833.3984 1376.0938 841.5938 1376.0938 841.5938 1352 848.8984 1352 848.8984 1387.4453 844.2969 1387.4453 Z" fill="#ffffff"/>
</g>
<g>
<path d="M1363.2969 1375.4453 C1362.3984 1371.3438 1359.0938 1368.7969 1352.3984 1368.7969 L1352.3984 1364.0938 1360.5938 1364.0938 1360.5938 1340 1367.8984 1340 1367.8984 1375.4453 1363.2969 1375.4453 Z" fill="#ffffff"/>
</g>
<g>
<path d="M1819.2969 1426.4453 C1818.3984 1422.3438 1815.0938 1419.7969 1808.3984 1419.7969 L1808.3984 1415.0938 1816.5938 1415.0938 1816.5938 1391 1823.8984 1391 1823.8984 1426.4453 1819.2969 1426.4453 Z" fill="#ffffff"/>
</g>
<g>
<path d="M2318.2969 1134.4453 C2317.3984 1130.3438 2314.0938 1127.7969 2307.3984 1127.7969 L2307.3984 1123.0938 2315.5938 1123.0938 2315.5938 1099 2322.8984 1099 2322.8984 1134.4453 2318.2969 1134.4453 Z" fill="#ffffff"/>
</g>
<g>
<path d="M2883.2969 1490.4453 C2882.3984 1486.3438 2879.0938 1483.7969 2872.3984 1483.7969 L2872.3984 1479.0938 2880.5938 1479.0938 2880.5938 1455 2887.8984 1455 2887.8984 1490.4453 2883.2969 1490.4453 Z" fill="#ffffff"/>
</g>
<g>
<path d="M3164.2969 1483.4453 C3163.3984 1479.3438 3160.0938 1476.7969 3153.3984 1476.7969 L3153.3984 1472.0938 3161.5938 1472.0938 3161.5938 1448 3168.8984 1448 3168.8984 1483.4453 3164.2969 1483.4453 Z" fill="#ffffff"/>
</g>
<g>
<path d="M3323.2969 843.4453 C3322.3984 839.3438 3319.0938 836.7969 3312.3984 836.7969 L3312.3984 832.0938 3320.5938 832.0938 3320.5938 808 3327.8984 808 3327.8984 843.4453 3323.2969 843.4453 Z" fill="#ffffff"/>
</g>
<g>
<path d="M2983.2969 522.4453 C2982.3984 518.3438 2979.0938 515.7969 2972.3984 515.7969 L2972.3984 511.0938 2980.5938 511.0938 2980.5938 487 2987.8984 487 2987.8984 522.4453 2983.2969 522.4453 Z" fill="#ffffff"/>
</g>
<g>
<path d="M2380.2969 834.4453 C2379.3984 830.3438 2376.0938 827.7969 2369.3984 827.7969 L2369.3984 823.0938 2377.5938 823.0938 2377.5938 799 2384.8984 799 2384.8984 834.4453 2380.2969 834.4453 Z" fill="#ffffff"/>
</g>
<g>
<path d="M1663.2969 834.4453 C1662.3984 830.3438 1659.0938 827.7969 1652.3984 827.7969 L1652.3984 823.0938 1660.5938 823.0938 1660.5938 799 1667.8984 799 1667.8984 834.4453 1663.2969 834.4453 Z" fill="#ffffff"/>
</g>
<g>
<path d="M1144.2969 830.4453 C1143.3984 826.3438 1140.0938 823.7969 1133.3984 823.7969 L1133.3984 819.0938 1141.5938 819.0938 1141.5938 795 1148.8984 795 1148.8984 830.4453 1144.2969 830.4453 Z" fill="#ffffff"/>
</g>
<g>
<path d="M655.2969 832.4453 C654.3984 828.3438 651.0938 825.7969 644.3984 825.7969 L644.3984 821.0938 652.5938 821.0938 652.5938 797 659.8984 797 659.8984 832.4453 655.2969 832.4453 Z" fill="#ffffff"/>
</g>
</g>
</svg>
